# xmcd
#
# Track frame offsets: 
#        150
#        11737
#        32917
#        50926
#        63238
#        80457
#        85173
#        109572
#        126794
#        145551
#        166277
#        181517
#        207966
#
# Disc length: 2979 seconds
#
# Revision: 4
# Processed by: cddbd v1.5.2PL0 Copyright (c) Steve Scherf et al.
# Submitted via: ExactAudioCopy v0.99pb5
#
DISCID=a50ba10d
DTITLE=Yokota, Susumu - Grinning Cat
DYEAR=2001
DGENRE=Ambient
TTITLE0=I imagine
TTITLE1=king dragonfly
TTITLE2=card nation
TTITLE3=sleepy eyes
TTITLE4=lapis lazuli
TTITLE5=Ballon in the cage
TTITLE6=cherry blossom
TTITLE7=love bird
TTITLE8=fearful dream
TTITLE9=tears of a poet
TTITLE10=so red
TTITLE11=flying cat
TTITLE12=lost child
EXTD=YEAR: 2001
EXTT0=
EXTT1=
EXTT2=
EXTT3=
EXTT4=
EXTT5=
EXTT6=
EXTT7=
EXTT8=
EXTT9=
EXTT10=
EXTT11=
EXTT12=
PLAYORDER=
